# xmcd CD database file
#
# Track frame offsets:
#	150
#	16126
#	36786
#	63053
#	75537
#	92102
#	122450
#	141868
#	165310
#	192894
#	201956
#	220743
#
# Disc length: 3003 seconds
#
# Revision: 1
# Processed by: cddbd v1.5.1PL0 Copyright (c) Steve Scherf et al.
# Submitted via: CDex 1.51
#
DISCID=930bb90c
DTITLE=Jackie Leven - Elegy For Johnny Cash
DYEAR=2005
DGENRE=Blues
TTITLE0=Blue Soul Dark Road
TTITLE1=Museum Of Childhood
TTITLE2=Elegy For Johnny Cash
TTITLE3=The Law Of Tide
TTITLE4=All The Rage
TTITLE5=No Honour In This Love
TTITLE6=Vibration White Finger
TTITLE7=King Of Barley
TTITLE8=And You'll Never Hear Surf Music Again
TTITLE9=In Memory Of My Mother
TTITLE10=Gladly Go Blind
TTITLE11=Why Log Truck Drivers Rise Earlier Than Students Of Zen
EXTD=YEAR: 2005
EXTT0=
EXTT1=
EXTT2=
EXTT3=
EXTT4=
EXTT5=
EXTT6=
EXTT7=
EXTT8=
EXTT9=
EXTT10=
EXTT11=
PLAYORDER=
